# xmcd
#
# Track frame offsets:
#	150
#	16906
#	33442
#	47031
#	66686
#	86674
#	105609
#	122152
#	139826
#	159883
#	177187
#	196823
#	214877
#	232326
#	250689
#
# Disc length: 3514 seconds
#
# Revision: 1
# Processed by: cddbd v1.5.2PL0 Copyright (c) Steve Scherf et al.
# Submitted via: audiograbber 1.83.01
#
DISCID=d30db80f
DTITLE=Various Artist - CB60211
DYEAR=2001
DGENRE=Karaoke
TTITLE0=Aaron Tippin - People Like Us
TTITLE1=Alabama - When It All Goes South
TTITLE2=Georgia Middleman - Kick Down The Door
TTITLE3=George Jones - Our Bed Of Roses
TTITLE4=Randy Travis - Down With The Old
TTITLE5=Sonya Isaacs - How Can I Forget
TTITLE6=Collin Raye - She's All That
TTITLE7=Ronnie Milsap - Livin' On Love
TTITLE8=Jesica Andrews - Who I am
TTITLE9=Diamond Rio - One More Day
TTITLE10=Chalee Tennison - Go Back
TTITLE11=Tim Rushlow - She Misses Him
TTITLE12=Mindy McCready - Scream
TTITLE13=Steve Holy - The Hunger
TTITLE14=Danni Leigh - Longnecks Cigarettes
EXTD=
EXTT0=
EXTT1=
EXTT2=
EXTT3=
EXTT4=
EXTT5=
EXTT6=
EXTT7=
EXTT8=
EXTT9=
EXTT10=
EXTT11=
EXTT12=
EXTT13=
EXTT14=
PLAYORDER=
